<?xml version="1.0" encoding="UTF-8"?>
<svg width="256" height="256" viewBox="0 0 256 256" fill="none" xmlns="http://www.w3.org/2000/svg">
  <!-- Spisly Mark: Chat-bowl + steam S -->
  <!-- Colors -->
  <!-- Deep Teal: #245E57 | Coral: #F17869 -->

  <!-- Soft background circle for app icon contexts (hidden by default) -->
  <circle cx="128" cy="128" r="124" fill="#FFFFFF" opacity="0" />

  <!-- Steam forming an S -->
  <path d="M145 40c-4.5 0-8.4 2.7-10.1 6.7l-3.6 8.2c-1.1 2.5 0.7 5.3 3.5 5.3h0.7c24.6 0 42 12.3 42 30.6 0 12.3-7.8 22.4-21.1 26.9l-16.2 5.4c-6.8 2.3-11.3 7.6-11.3 13.5 0 7.6 7.8 13.8 17.4 13.8h2c4.7 0 8.5 3.8 8.5 8.5 0 4.7-3.8 8.5-8.5 8.5h-2c-20.5 0-34.4-12-34.4-30.8 0-13.7 8.8-25.5 22.9-30.2l16.2-5.4c6.9-2.3 10.6-6.5 10.6-12 0-9.2-12.7-15.4-29.2-15.4h-0.7c-8.9 0-14.8-9.1-11.4-17.3l5.4-12.3c1.9-4.3 6.1-7.1 10.8-7.1 3 0 5.7 1.1 7.8 3 2.5 2.2 6.4 2 8.6-0.5 2.2-2.5 2-6.4-0.5-8.6-4.3-3.9-9.9-6.1-15.9-6.1z" fill="#F17869" />

  <!-- Bowl as a chat bubble -->
  <path d="M40 148c0 41.4 37.7 74.9 88 74.9 4.6 0 9.1-0.3 13.5-0.9 4.9-0.7 9.9 1 13.4 4.4l6.8 6.6c2.9 2.8 7.7 0.8 7.9-3.2l0.6-12.4c0.2-3.6 2.4-6.7 5.6-8.2 33.1-15.5 54.2-43.7 54.2-77.3 0-4.4-3.6-8-8-8H48c-4.4 0-8 3.6-8 8z" fill="#245E57" />

  <!-- Subtle rim highlight -->
  <path d="M48 144h160" stroke="#0E2F2B" stroke-opacity="0.15" stroke-width="6" stroke-linecap="round"/>
</svg>



